<?xml version="1.0" encoding="UTF-8"?><svg id="Layer_2" xmlns="http://www.w3.org/2000/svg" viewBox="0 0 247.43 247.43"><defs><style>.cls-1{fill:#39542f;stroke-width:0px;}</style></defs><g id="Layer_1-2"><path class="cls-1" d="M196.16,123.71h0c0,3.63-.28,7.2-.79,10.68-.02.07-.05.14-.07.21l.04.04c-4.75,31.21-29.48,55.94-60.68,60.68l-.04-.04c-.07.02-.13.05-.21.07-3.49.52-7.06.79-10.69.79v51.27s23.4-40.51,23.4-40.51c28.88-8.14,51.67-30.92,59.8-59.8l40.51-23.4h-51.27M123.72,0l-23.4,40.51c-28.88,8.14-51.66,30.92-59.8,59.8L0,123.72h51.27c0-3.63.28-7.2.79-10.68.02-.07.05-.13.07-.21l-.04-.04c5.29-34.78,35.39-61.51,71.62-61.51h0V0M89.35,220.69c-11.5,15.83-28.67,2.15-17.32-11.45l7.07-8.47c7.33-8.78,46.1-51.15,57.74-67.4,10.44-11.78,22.96-16.38,34.44-16.37-6.61-3.26-15.07-3.46-25.41-.61,4.03-25.21,2.75-19.92,20.25-37.86l28.07-28.78c3-3.07,6.31-.98,2.97,2.97l-26.27,31.06c-5.85,6.91,1.94,12.37,6.86,6.62l27.44-32.09c2.59-3.03,5.61-.53,3,2.75l-26.68,33.55c-5.2,6.54,1.6,12.55,7.27,5.57l26.82-33.01c2.75-3.39,5.17-1.31,2.74,2.38l-29.58,44.71c-12.87,19.45-20.56,10.29-35.98,24.33-9.66,8.79-41.62,50.67-54.82,69.83l-3.69,5.35c-1.84,2.64-3.49,4.99-4.91,6.93ZM71.24,190.39c-16.16,13.61-33.28,13.14-40.19,2.23h0c-2.29-4.9-4.16-9.62-2.45-19.11.38-1.96.92-4.02,1.63-6.18,6-18.16,23.4-35.05,43.46-37.47h.05c-6.79,10.07-8.2,13.92-6.95,24.51,1.29,10.96-2.27,22.15-10.71,33.57,28.23-23.41,11.28-40.78,23.47-56.65,11.84-15.41,35.06-43.94,47.11-59.96l29.03-38.6c9.79-13.01,28.89-2.76,14.59,13.04l-4.94,5.46-27.05,29.89c-14.16,15.65-45.06,46.86-46.12,68.67-.74,15.17-8.71,30.3-20.93,40.59Z"/></g></svg>